<svg id="line" height="512" viewBox="0 0 64 64" width="512" xmlns="http://www.w3.org/2000/svg"><circle cx="38.422" cy="41.716" fill="#c4a2fc" r="10.5"/><path d="m50.711 20.431h-24.577l-12.289 21.285 12.289 21.284h24.577l12.289-21.284zm-12.289 33.785a12.5 12.5 0 1 1 12.5-12.5 12.515 12.515 0 0 1 -12.5 12.5z" fill="#c4a2fc"/><g fill="#151a6a"><path d="m10.072 36.931a3 3 0 1 0 0 4.243 3 3 0 0 0 0-4.243zm-2.828 2.829a1 1 0 1 1 1.414 0 1 1 0 0 1 -1.414 0z"/><path d="m41.892 24.911a14.015 14.015 0 0 0 0-19.8 1 1 0 0 0 -1.414 0l-7.061 7.061-1.65-1.172 6.854-6.854a1 1 0 0 0 -.253-1.6 14 14 0 0 0 -19.631 16.963l-15.592 14.7a6.827 6.827 0 1 0 9.65 9.65l14.705-15.592a14 14 0 0 0 14.392-3.356zm-5.717-21.153-6.058 6.058-5.717-4.086a11.952 11.952 0 0 1 11.775-1.972zm-8.588 22.413a1 1 0 0 0 -1.094.244l-15.153 16.072a4.827 4.827 0 1 1 -6.823-6.823l16.072-15.153a1 1 0 0 0 .244-1.094 12 12 0 0 1 2.1-12.274l10.01 7.15a1 1 0 0 0 1.288-.107l6.917-6.917a11.993 11.993 0 0 1 -13.562 18.9z"/></g></svg>